/* XPM */
static char * room_se_xpm[] = {
"32 32 45 1",
" 	c #FFFFFF",
".	c #BFBFBF",
"+	c #7F7F7F",
"@	c #404040",
"#	c #6D6D6D",
"$	c #1B1B1B",
"%	c #363636",
"&	c #FBFBFB",
"*	c #696969",
"=	c #030303",
"-	c #010101",
";	c #0B0B0B",
">	c #7C7C7C",
",	c #5C5C5C",
"'	c #020202",
")	c #000000",
"!	c #090909",
"~	c #CDCDCD",
"{	c #CECECE",
"]	c #0A0A0A",
"^	c #191919",
"/	c #F3F3F3",
"(	c #878787",
"_	c #5F5F5F",
":	c #373737",
"<	c #050505",
"[	c #ADADAD",
"}	c #E4E4E4",
"|	c #0D0D0D",
"1	c #0E0E0E",
"2	c #EEEEEE",
"3	c #B8B8B8",
"4	c #3B3B3B",
"5	c #FEFEFE",
"6	c #5B5B5B",
"7	c #959595",
"8	c #F4F4F4",
"9	c #121212",
"0	c #070707",
"a	c #313131",
"b	c #EDEDED",
"c	c #CBCBCB",
"d	c #898989",
"e	c #8F8F8F",
"f	c #C2C2C2",
"                                ",
"                                ",
"                                ",
"                                ",
"                                ",
"                                ",
"                                ",
"                                ",
"                                ",
"       .++++++++++++++++.       ",
"       +@++++++++++++++@+       ",
"       ++              ++       ",
"       ++              ++       ",
"       ++              ++       ",
"       ++              ++       ",
"       ++              ++       ",
"       ++              ++       ",
"       ++              ++       ",
"       ++              ++       ",
"       ++              ++       ",
"       ++              #$%&     ",
"       +@+++++++++++++*=-;>     ",
"       .+++++++++++++,')))!~    ",
"                     {])))-^/   ",
"                      (])))!_   ",
"                       :<)));[  ",
"                       }|))))12 ",
"                        3;)))<45",
"                         6!)))=7",
"                         89-)0ab",
"                          c]0d5 ",
"                           ef   "};
