/* XPM */
static char * room_ne_xpm[] = {
"32 32 45 1",
" 	c #FFFFFF",
".	c #8F8F8F",
"+	c #C2C2C2",
"@	c #CBCBCB",
"#	c #0A0A0A",
"$	c #070707",
"%	c #898989",
"&	c #FEFEFE",
"*	c #F4F4F4",
"=	c #121212",
"-	c #010101",
";	c #000000",
">	c #313131",
",	c #EDEDED",
"'	c #5B5B5B",
")	c #090909",
"!	c #030303",
"~	c #959595",
"{	c #B8B8B8",
"]	c #0B0B0B",
"^	c #050505",
"/	c #3B3B3B",
"(	c #E4E4E4",
"_	c #0D0D0D",
":	c #0E0E0E",
"<	c #EEEEEE",
"[	c #373737",
"}	c #ADADAD",
"|	c #878787",
"1	c #5F5F5F",
"2	c #CECECE",
"3	c #191919",
"4	c #F3F3F3",
"5	c #BFBFBF",
"6	c #7F7F7F",
"7	c #5C5C5C",
"8	c #020202",
"9	c #CDCDCD",
"0	c #404040",
"a	c #696969",
"b	c #7C7C7C",
"c	c #6D6D6D",
"d	c #1B1B1B",
"e	c #363636",
"f	c #FBFBFB",
"                           .+   ",
"                          @#$%& ",
"                         *=-;$>,",
"                         ');;;!~",
"                        {];;;^/&",
"                       (_;;;;:< ",
"                       [^;;;]}  ",
"                      |#;;;)1   ",
"                     2#;;;-34   ",
"       5666666666666678;;;)9    ",
"       606666666666666a!-]b     ",
"       66              cdef     ",
"       66              66       ",
"       66              66       ",
"       66              66       ",
"       66              66       ",
"       66              66       ",
"       66              66       ",
"       66              66       ",
"       66              66       ",
"       66              66       ",
"       606666666666666606       ",
"       566666666666666665       ",
"                                ",
"                                ",
"                                ",
"                                ",
"                                ",
"                                ",
"                                ",
"                                ",
"                                "};
