/* XPM */
static char * room_down_xpm[] = {
"32 32 5 1",
" 	c #FFFFFF",
".	c #BFBFBF",
"+	c #7F7F7F",
"@	c #404040",
"#	c #000000",
"                                ",
"                                ",
"                                ",
"                                ",
"                                ",
"                                ",
"                                ",
"                                ",
"                                ",
"       .++++++++++++++++.       ",
"       +@++++++++++++++@+       ",
"       ++              ++       ",
"       ++              ++       ",
"       ++              ++       ",
"       ++              ++       ",
"       ++              ++       ",
"       ++              ++       ",
"       ++              ++       ",
"       ++              ++       ",
"       ++              ++       ",
"       ++              ++       ",
"       +@++++######++++@+       ",
"       .+++++######+++++.       ",
"             ######             ",
"             ######             ",
"             ######             ",
"             ######             ",
"             ######             ",
"             ######             ",
"             ######             ",
"             ######             ",
"                                "};
