/* XPM */
static char * room_nw_xpm[] = {
"32 32 45 1",
" 	c #FFFFFF",
".	c #C2C2C2",
"+	c #8F8F8F",
"@	c #FEFEFE",
"#	c #898989",
"$	c #070707",
"%	c #0A0A0A",
"&	c #CBCBCB",
"*	c #EDEDED",
"=	c #313131",
"-	c #000000",
";	c #010101",
">	c #121212",
",	c #F4F4F4",
"'	c #959595",
")	c #030303",
"!	c #090909",
"~	c #5B5B5B",
"{	c #3B3B3B",
"]	c #050505",
"^	c #0B0B0B",
"/	c #B8B8B8",
"(	c #EEEEEE",
"_	c #0E0E0E",
":	c #0D0D0D",
"<	c #E4E4E4",
"[	c #ADADAD",
"}	c #373737",
"|	c #5F5F5F",
"1	c #878787",
"2	c #F3F3F3",
"3	c #191919",
"4	c #CECECE",
"5	c #CDCDCD",
"6	c #020202",
"7	c #5C5C5C",
"8	c #7F7F7F",
"9	c #BFBFBF",
"0	c #7C7C7C",
"a	c #696969",
"b	c #404040",
"c	c #FBFBFB",
"d	c #363636",
"e	c #1B1B1B",
"f	c #6D6D6D",
"   .+                           ",
" @#$%&                          ",
"*=$-;>,                         ",
"')---!~                         ",
"@{]---^/                        ",
" (_----:<                       ",
"  [^---]}                       ",
"   |!---%1                      ",
"   23;---%4                     ",
"    5!---6788888888888889       ",
"     0^;)a8888888888888b8       ",
"     cdef              88       ",
"       88              88       ",
"       88              88       ",
"       88              88       ",
"       88              88       ",
"       88              88       ",
"       88              88       ",
"       88              88       ",
"       88              88       ",
"       88              88       ",
"       8b88888888888888b8       ",
"       988888888888888889       ",
"                                ",
"                                ",
"                                ",
"                                ",
"                                ",
"                                ",
"                                ",
"                                ",
"                                "};
