/* XPM */
static char * room_up_xpm[] = {
"32 32 5 1",
" 	c #FFFFFF",
".	c #000000",
"+	c #BFBFBF",
"@	c #7F7F7F",
"#	c #404040",
"                                ",
"             ......             ",
"             ......             ",
"             ......             ",
"             ......             ",
"             ......             ",
"             ......             ",
"             ......             ",
"             ......             ",
"       +@@@@@......@@@@@+       ",
"       @#@@@@......@@@@#@       ",
"       @@              @@       ",
"       @@              @@       ",
"       @@              @@       ",
"       @@              @@       ",
"       @@              @@       ",
"       @@              @@       ",
"       @@              @@       ",
"       @@              @@       ",
"       @@              @@       ",
"       @@              @@       ",
"       @#@@@@@@@@@@@@@@#@       ",
"       +@@@@@@@@@@@@@@@@+       ",
"                                ",
"                                ",
"                                ",
"                                ",
"                                ",
"                                ",
"                                ",
"                                ",
"                                "};
