/* XPM */
static char * room_right_xpm[] = {
"32 32 4 1",
" 	c #000000",
".	c #404040",
"+	c #7F7F7F",
"@	c #FFFFFF",
"@@@@@@@@@@@@@@@@@@@@@@@@@@@@@@@@",
"@@@@@@@@@@@@@@@@@@@@@@@@@@@@@@@@",
"@@@@@@@@@@@@@@@@@@@@@@@@@@@@@@@@",
"@@@@@@@@@@@@@@@@@@@@@@@@@@@@@@@@",
"@@@@@@@@@@@@@@@@@@@@@@@@@@@@@@@@",
"@@@@@@@@@@@@@@@@@@@@@@@@@@@@@@@@",
"@@@@@@@@@@@@@@@@@@@@@@@@@@@@@@@@",
"@@@@@@@@@@@@@@@@@@@@@@@@@@@@@@@@",
"@@@@@@@@@@@@@@@@@@@@@@@@@@@@@@@@",
"@@@@@@@@@@@@@@@@@@@@@@@@@@@@@@@@",
"@@@@@@@@.++++++++++++++.@@@@@@@@",
"@@@@@@@@+@@@@@@@@@@@@@@+@@@@@@@@",
"@@@@@@@@+@@@@@@@@@@@@@@+@@@@@@@@",
"@@@@@@@@+@@@@@@@@@@@@@@+@@@@@@@@",
"@@@@@@@@+@@@@@@@@@@@@@@        @",
"@@@@@@@@+@@@@@@@@@@@@@@        @",
"@@@@@@@@+@@@@@@@@@@@@@@        @",
"@@@@@@@@+@@@@@@@@@@@@@@        @",
"@@@@@@@@+@@@@@@@@@@@@@@+@@@@@@@@",
"@@@@@@@@+@@@@@@@@@@@@@@+@@@@@@@@",
"@@@@@@@@+@@@@@@@@@@@@@@+@@@@@@@@",
"@@@@@@@@.++++++++++++++.@@@@@@@@",
"@@@@@@@@@@@@@@@@@@@@@@@@@@@@@@@@",
"@@@@@@@@@@@@@@@@@@@@@@@@@@@@@@@@",
"@@@@@@@@@@@@@@@@@@@@@@@@@@@@@@@@",
"@@@@@@@@@@@@@@@@@@@@@@@@@@@@@@@@",
"@@@@@@@@@@@@@@@@@@@@@@@@@@@@@@@@",
"@@@@@@@@@@@@@@@@@@@@@@@@@@@@@@@@",
"@@@@@@@@@@@@@@@@@@@@@@@@@@@@@@@@",
"@@@@@@@@@@@@@@@@@@@@@@@@@@@@@@@@",
"@@@@@@@@@@@@@@@@@@@@@@@@@@@@@@@@",
"@@@@@@@@@@@@@@@@@@@@@@@@@@@@@@@@"};
