/* XPM */
static char * room_sw_xpm[] = {
"32 32 45 1",
" 	c #FFFFFF",
".	c #BFBFBF",
"+	c #7F7F7F",
"@	c #404040",
"#	c #FBFBFB",
"$	c #363636",
"%	c #1B1B1B",
"&	c #6D6D6D",
"*	c #7C7C7C",
"=	c #0B0B0B",
"-	c #010101",
";	c #030303",
">	c #696969",
",	c #CDCDCD",
"'	c #090909",
")	c #000000",
"!	c #020202",
"~	c #5C5C5C",
"{	c #F3F3F3",
"]	c #191919",
"^	c #0A0A0A",
"/	c #CECECE",
"(	c #5F5F5F",
"_	c #878787",
":	c #ADADAD",
"<	c #050505",
"[	c #373737",
"}	c #EEEEEE",
"|	c #0E0E0E",
"1	c #0D0D0D",
"2	c #E4E4E4",
"3	c #FEFEFE",
"4	c #3B3B3B",
"5	c #B8B8B8",
"6	c #959595",
"7	c #5B5B5B",
"8	c #EDEDED",
"9	c #313131",
"0	c #070707",
"a	c #121212",
"b	c #F4F4F4",
"c	c #898989",
"d	c #CBCBCB",
"e	c #C2C2C2",
"f	c #8F8F8F",
"                                ",
"                                ",
"                                ",
"                                ",
"                                ",
"                                ",
"                                ",
"                                ",
"                                ",
"       .++++++++++++++++.       ",
"       +@++++++++++++++@+       ",
"       ++              ++       ",
"       ++              ++       ",
"       ++              ++       ",
"       ++              ++       ",
"       ++              ++       ",
"       ++              ++       ",
"       ++              ++       ",
"       ++              ++       ",
"       ++              ++       ",
"     #$%&              ++       ",
"     *=-;>+++++++++++++@+       ",
"    ,')))!~+++++++++++++.       ",
"   {]-)))^/                     ",
"   (')))^_                      ",
"  :=)))<[                       ",
" }|))))12                       ",
"34<)))=5                        ",
"6;)))'7                         ",
"890)-ab                         ",
" 3c0^d                          ",
"   ef                           "};
